<?xml version="1.0"?>
<svg xmlns="http://www.w3.org/2000/svg" height="512px" viewBox="0 -4 480 480" width="512px" class=""><g><path d="m472 12.398438v112h-64v-112zm0 0" fill="#bddbff" data-original="#BDDBFF" class=""/><path d="m272 244.398438h64c0 17.675781-14.328125 32-32 32s-32-14.324219-32-32zm0 0" fill="#bddbff" data-original="#BDDBFF" class=""/><path d="m144 244.398438h64c0 17.675781-14.328125 32-32 32s-32-14.324219-32-32zm0 0" fill="#bddbff" data-original="#BDDBFF" class=""/><path d="m72 452.398438v8h-64v-112h64zm0 0" fill="#bddbff" data-original="#BDDBFF" class=""/><g fill="#3d9ae2"><path d="m425.199219 319.871094-68.128907 39.328125c-5.167968-11.417969-16.535156-18.769531-29.070312-18.800781h-94.703125l-29.527344-9.839844c-12.234375-4.082032-25.046875-6.160156-37.945312-6.160156h-6.800781c-21.75 0-43.09375 5.914062-61.742188 17.105468l-11.496094 6.894532h-5.785156c0-4.417969-3.582031-8-8-8h-64c-4.417969 0-8 3.582031-8 8v112c0 4.417968 3.582031 8 8 8h64c4.417969 0 8-3.582032 8-8h60.246094c2.1875 0 4.375.128906 6.546875.386718l95.367187 11.199219c4.589844.539063 9.210938.804687 13.832032.800781 21.121093-.003906 41.871093-5.542968 60.183593-16.066406l141.023438-81.390625c9.953125-5.671875 16.070312-16.273437 16-27.726563.007812-11.4375-6.089844-22.003906-15.992188-27.726562-9.902343-5.71875-22.105469-5.71875-32.007812-.003906zm-361.199219 132.527344h-48v-96h48zm385.199219-90.925782-141.023438 81.421875c-19.425781 11.164063-41.921875 15.796875-64.175781 13.21875l-95.359375-11.203125c-2.785156-.332031-5.585937-.503906-8.394531-.511718h-60.246094v-80h8c1.453125 0 2.875-.394532 4.121094-1.140626l13.390625-8c16.160156-9.710937 34.65625-14.847656 53.511719-14.859374h6.800781c11.179687 0 22.28125 1.804687 32.886719 5.335937l30.761718 10.257813c.816406.269531 1.667969.410156 2.527344.40625h96c8.835938 0 16 7.164062 16 16 0 8.839843-7.164062 16-16 16h-120v16h120c16.152344-.050782 29.726562-12.15625 31.617188-28.199219l73.542968-42.445313c4.949219-2.859375 11.046875-2.859375 15.996094-.003906s8 8.136719 8.003906 13.851562c.046875 5.71875-2.996094 11.023438-7.960937 13.871094zm0 0" data-original="#3D9AE2" class="active-path" style="fill:#0691CA" data-old_color="#3D9AE2"/><path d="m472 4.398438h-64c-4.417969 0-8 3.582031-8 8h-60.246094c-2.1875 0-4.375-.125-6.546875-.382813l-95.367187-11.214844c-25.667969-2.972656-51.613282 2.375-74.015625 15.253907l-141.023438 81.417968c-9.953125 5.671875-16.070312 16.273438-16 27.726563.050781 11.410156 6.160157 21.933593 16.039063 27.644531 9.882812 5.707031 22.050781 5.738281 31.960937.085938l68.128907-39.328126c5.167968 11.417969 16.535156 18.769532 29.070312 18.796876h94.703125l29.527344 9.839843c12.234375 4.085938 25.046875 6.164063 37.945312 6.160157h6.800781c21.75 0 43.09375-5.910157 61.742188-17.101563l11.496094-6.898437h5.785156c0 4.417968 3.582031 8 8 8h64c4.417969 0 8-3.582032 8-8v-112c0-4.417969-3.582031-8-8-8zm-80 104c-1.453125.003906-2.875.398437-4.121094 1.144531l-13.390625 8c-16.160156 9.710937-34.65625 14.847656-53.511719 14.855469h-6.800781c-11.179687 0-22.28125-1.800782-32.886719-5.335938l-30.761718-10.253906c-.816406-.269532-1.667969-.410156-2.527344-.410156h-96c-8.835938 0-16-7.160157-16-16 0-8.835938 7.164062-16 16-16h120v-16h-120c-16.152344.050781-29.726562 12.160156-31.617188 28.203124l-73.542968 42.445313c-4.953125 2.878906-11.0625 2.890625-16.027344.03125-4.960938-2.859375-8.019531-8.152344-8.011719-13.878906-.039062-5.730469 3.019531-11.035157 8-13.871094l141.023438-81.425781c19.425781-11.160156 41.921875-15.792969 64.175781-13.214844l95.359375 11.199219c2.785156.335937 5.585937.503906 8.394531.511719h60.246094v80zm72 8h-48v-96h48zm0 0" data-original="#3D9AE2" class="active-path" style="fill:#0691CA" data-old_color="#3D9AE2"/><path d="m136 244.398438c0 22.09375 17.910156 40 40 40s40-17.90625 40-40c0-1.238282-.285156-2.464844-.839844-3.574219l-26.214844-52.425781h28.527344c2.417969 6.777343 7.75 12.109374 14.527344 14.53125v97.46875h-40v16h96v-16h-40v-97.46875c6.777344-2.421876 12.109375-7.753907 14.527344-14.53125h28.527344l-26.253907 52.425781c-.539062 1.113281-.8125 2.339843-.800781 3.574219 0 22.09375 17.910156 40 40 40s40-17.90625 40-40c.011719-1.234376-.261719-2.460938-.800781-3.574219l-26.253907-52.425781h11.054688v-16h-65.472656c-2.417969-6.773438-7.75-12.105469-14.527344-14.527344v-9.472656h-16v9.472656c-6.777344 2.421875-12.109375 7.753906-14.527344 14.527344h-65.472656v16h11.054688l-26.214844 52.425781c-.554688 1.109375-.839844 2.335937-.839844 3.574219zm168-46.109376 19.054688 38.109376h-38.109376zm0 70.109376c-10.132812-.042969-19.144531-6.445313-22.519531-16h45.039062c-3.375 9.554687-12.386719 15.957031-22.519531 16zm-64-96c4.417969 0 8 3.582031 8 8 0 4.417968-3.582031 8-8 8s-8-3.582032-8-8c0-4.417969 3.582031-8 8-8zm-64 96c-10.132812-.042969-19.144531-6.445313-22.519531-16h45.039062c-3.375 9.554687-12.386719 15.957031-22.519531 16zm-19.054688-32 19.054688-38.109376 19.054688 38.109376zm0 0" data-original="#3D9AE2" class="active-path" style="fill:#0691CA" data-old_color="#3D9AE2"/><path d="m160 300.398438h16v16h-16zm0 0" data-original="#3D9AE2" class="active-path" style="fill:#0691CA" data-old_color="#3D9AE2"/><path d="m304 300.398438h16v16h-16zm0 0" data-original="#3D9AE2" class="active-path" style="fill:#0691CA" data-old_color="#3D9AE2"/></g></g> </svg>
