<?xml version="1.0" encoding="utf-8"?>
<!-- Generator: Adobe Illustrator 23.0.0, SVG Export Plug-In . SVG Version: 6.00 Build 0)  -->
<svg version="1.1" id="Capa_1" xmlns="http://www.w3.org/2000/svg" xmlns:xlink="http://www.w3.org/1999/xlink" x="0px" y="0px"
	 viewBox="0 0 569 569" style="enable-background:new 0 0 569 569;" xml:space="preserve">
<style type="text/css">
	.st0{fill:#1A2784;}
</style>
<path class="st0" d="M66.2,66.3v492.9c0,5.2,4.2,9.5,9.5,9.5h360.2c5.2,0,9.5-4.2,9.5-9.5V161.1c0-0.2-0.1-0.4-0.1-0.6
	c0-0.8-0.2-1.7-0.5-2.4c-0.1-0.3-0.2-0.6-0.3-0.9c-0.5-1-1.1-2-1.9-2.8l-94.8-94.8c-0.8-0.8-1.7-1.4-2.8-1.9
	c-0.3-0.1-0.6-0.2-0.9-0.3c-0.8-0.3-1.6-0.4-2.5-0.5c-0.2,0-0.3-0.1-0.5-0.1H75.7C70.5,56.9,66.2,61.1,66.2,66.3z M413,151.7h-62.4
	V89.2L413,151.7z M85.2,75.8h246.4v85.3c0,5.2,4.2,9.5,9.5,9.5h85.3v379.1H85.2V75.8z"/>
<path class="st0" d="M464.3,492.9v19h28.4c5.2,0,9.5-4.2,9.5-9.5V9.5c0-5.2-4.2-9.5-9.5-9.5H132.6c-5.2,0-9.5,4.2-9.5,9.5v28.4h19
	V19h341.2v473.9H464.3z"/>
<path class="st0" d="M142,189.6h227.5v19H142V189.6z"/>
<path class="st0" d="M142,132.7h75.8v19H142V132.7z"/>
<path class="st0" d="M142,246.4h151.7v19H142V246.4z"/>
<path class="st0" d="M312.7,246.4h56.9v19h-56.9V246.4z"/>
<path class="st0" d="M142,303.3h227.5v19H142V303.3z"/>
<path class="st0" d="M142,417.1h227.5v19H142V417.1z"/>
<path class="st0" d="M227.4,360.2h142.2v19H227.4V360.2z"/>
<path class="st0" d="M142,360.2h66.3v19H142V360.2z"/>
<path class="st0" d="M142,473.9H180v19H142V473.9z"/>
<path class="st0" d="M198.9,473.9h170.6v19H198.9V473.9z"/>
</svg>
