<?xml version="1.0" encoding="utf-8"?>
<!-- Generator: Adobe Illustrator 23.0.0, SVG Export Plug-In . SVG Version: 6.00 Build 0)  -->
<svg version="1.1" id="Capa_1" xmlns="http://www.w3.org/2000/svg" xmlns:xlink="http://www.w3.org/1999/xlink" x="0px" y="0px"
	 viewBox="0 0 98.7 98.7" style="enable-background:new 0 0 98.7 98.7;" xml:space="preserve">
<style type="text/css">
	.st0{fill:none;stroke:#0691CA;stroke-width:3;stroke-miterlimit:10;}
</style>
<g>
	<g>
		<circle class="st0" cx="50.5" cy="54.7" r="9.7"/>
		<path class="st0" d="M54.6,65.1h-8.2c-6.9,0-12.4,5.6-12.4,12.4v10.1v0.2l0.7,0.2c6.5,2,12.2,2.7,16.9,2.7
			c9.1,0,14.4-2.6,14.8-2.8l0.6-0.3h0.1V77.5C67,70.7,61.5,65.1,54.6,65.1z"/>
		<circle class="st0" cx="30.7" cy="26.5" r="15.7"/>
		<path class="st0" d="M70.3,42.1c8.6,0,15.7-7,15.7-15.7c0-8.6-7-15.7-15.7-15.7c-8.6,0-15.7,7-15.7,15.7S61.7,42.1,70.3,42.1z"/>
		<path class="st0" d="M42.9,63.6c-2.5-2.1-4.1-5.3-4.1-8.8c0-4.3,2.4-8.1,5.9-10.1c-2.3-0.9-4.8-1.4-7.4-1.4H24c-11.1,0-20,9-20,20
			v16.3v0.3l1.1,0.3c10.4,3.2,19.4,4.3,26.8,4.4v-6.9C32,70.8,36.6,65.2,42.9,63.6z"/>
		<path class="st0" d="M77,43.2H63.7c-2.6,0-5.1,0.5-7.4,1.4c3.5,2,5.9,5.8,5.9,10.1c0,3.5-1.6,6.7-4.1,8.8c2.5,0.6,4.8,1.9,6.7,3.8
			C67.5,70,69,73.6,69,77.5v6.9c7.5,0,16.5-1.2,26.8-4.4l1.1-0.3v-0.3V63.2C97,52.2,88,43.2,77,43.2z"/>
	</g>
</g>
</svg>
