<svg id="f52f1cd9-5484-4b3f-acae-d0c28149cbc0" data-name="Capa 1" xmlns="http://www.w3.org/2000/svg" viewBox="0 0 202 281"><title>logo</title><path d="M141.27,169.47H8.34V188.7H160.51V66.25H141.27Zm0,0" style="fill:#004883;fill-rule:evenodd"/><path d="M57.71,25.2H190.65V6H38.47V128.41H57.71Zm0,0" style="fill:#004883;fill-rule:evenodd"/><path d="M171.71,55.46V188.4H191V36.22H68.51V55.46Zm0,0" style="fill:#0691ca;fill-rule:evenodd"/><path d="M8.22,6.07H27.46V139h103.2v19.24H8.22Zm0,0" style="fill:#0691ca;fill-rule:evenodd"/><path d="M8.51,236.36a10.61,10.61,0,0,0,.69,2.72A5.07,5.07,0,0,0,10.53,241a3,3,0,0,0,2.09.73,2.87,2.87,0,0,0,1.84-.65,5,5,0,0,0,1.39-1.84,11.16,11.16,0,0,0,.89-2.9,21.44,21.44,0,0,0,.31-3.85,24,24,0,0,0-.48-4.89,35.69,35.69,0,0,0-1.37-4.81l-3.27-8.54c-.14-.39-.26-.76-.37-1.12s-.2-.73-.28-1.12a10.8,10.8,0,0,1-.17-1.25q-.06-.67-.06-1.53a6.81,6.81,0,0,1,.39-2.54,1.27,1.27,0,0,1,1.18-.95c.64,0,1.1.57,1.39,1.7a21.61,21.61,0,0,1,.42,4.89v1.9H16.6c.08-.88.15-1.68.22-2.4s.09-1.52.09-2.38a23.75,23.75,0,0,0-.2-3,11.85,11.85,0,0,0-.69-2.73,5.44,5.44,0,0,0-1.31-2,2.93,2.93,0,0,0-2.05-.75,2.71,2.71,0,0,0-1.81.67A5,5,0,0,0,9.5,203.5a12.07,12.07,0,0,0-.83,2.87A21.73,21.73,0,0,0,8.38,210a24,24,0,0,0,.43,4.68,28.72,28.72,0,0,0,1.2,4.35L13,226.58c.26.71.47,1.34.64,1.91s.3,1.12.4,1.63a13.9,13.9,0,0,1,.21,1.56c0,.53.06,1.1.06,1.73a7.06,7.06,0,0,1-.43,2.77,1.33,1.33,0,0,1-1.23.95,1.06,1.06,0,0,1-.86-.43,3.24,3.24,0,0,1-.57-1.29,12.86,12.86,0,0,1-.3-2.1c-.06-.83-.1-1.78-.1-2.86v-1.94H8.59c-.1.84-.17,1.63-.21,2.35s-.07,1.52-.07,2.38a22.82,22.82,0,0,0,.2,3.12Zm9.53,5H20.9l.49-7.17h3.39l.51,7.17h2.85l-3.43-40H21.47l-3.43,40Zm3.68-11.74,1.31-20h.12l1.31,20Zm8.15-.56a47.58,47.58,0,0,0,.22,5,24.18,24.18,0,0,0,.57,3.49,9.71,9.71,0,0,0,.81,2.22,4.8,4.8,0,0,0,1,1.26,2.35,2.35,0,0,0,1,.55,3.71,3.71,0,0,0,.89.12,3.77,3.77,0,0,0,.89-.12,2.32,2.32,0,0,0,1-.55,4.81,4.81,0,0,0,1-1.26,9.23,9.23,0,0,0,.82-2.22,25.66,25.66,0,0,0,.58-3.5c.14-1.39.22-3.06.22-5V201.31H35.92v29.35c0,1.25,0,2.29-.1,3.12a10.86,10.86,0,0,1-.31,2,2.38,2.38,0,0,1-.51,1.06,1,1,0,0,1-.72.31.93.93,0,0,1-.71-.31,2.38,2.38,0,0,1-.49-1.06,11.25,11.25,0,0,1-.28-2q-.09-1.25-.09-3.12V201.31H29.87v27.74Zm18.91,10.33a18.56,18.56,0,0,0,1-7.12v-3.71H47.22v3.92a17.47,17.47,0,0,1-.11,2.07A8.16,8.16,0,0,1,46.8,236a2.18,2.18,0,0,1-.44.84.7.7,0,0,1-.52.27.93.93,0,0,1-.72-.32,2.44,2.44,0,0,1-.49-1.06,12,12,0,0,1-.26-2c-.06-.82-.08-1.86-.08-3.11V212.33c0-1.28,0-2.35.1-3.21a13.67,13.67,0,0,1,.3-2.08,2.62,2.62,0,0,1,.49-1.11.88.88,0,0,1,.68-.33c.44,0,.77.55,1,1.64a26.26,26.26,0,0,1,.34,4.95v2h2.28q.12-1.32.18-2.4c0-.73.06-1.52.06-2.38a26.49,26.49,0,0,0-.19-3.29,10.92,10.92,0,0,0-.64-2.7,4.56,4.56,0,0,0-1.2-1.83,2.63,2.63,0,0,0-1.85-.67,3.55,3.55,0,0,0-.92.14,2.4,2.4,0,0,0-1,.6A4.7,4.7,0,0,0,43,203a10.29,10.29,0,0,0-.83,2.33,27.81,27.81,0,0,0-.58,3.62q-.21,2.15-.21,5.16v14.19c0,2,.07,3.72.21,5.17a28.25,28.25,0,0,0,.56,3.64,10.85,10.85,0,0,0,.82,2.38,5.24,5.24,0,0,0,1,1.4,2.48,2.48,0,0,0,1,.64,3.37,3.37,0,0,0,.94.16c1.28,0,2.26-.79,2.94-2.33Zm3.24,2h7v-4.78H54.84V222.86H58v-4.79H54.84v-12H58.9v-4.78H52v40Zm9,0H64a11.07,11.07,0,0,0,1.38-.08,3.3,3.3,0,0,0,1.39-.5,4.53,4.53,0,0,0,1.28-1.3A8.46,8.46,0,0,0,69.08,237a23.8,23.8,0,0,0,.73-4,57.11,57.11,0,0,0,.26-5.88V215.52a56.76,56.76,0,0,0-.26-5.87,23.8,23.8,0,0,0-.73-4A8.17,8.17,0,0,0,68,203.2a4.41,4.41,0,0,0-1.28-1.3,3.46,3.46,0,0,0-1.39-.51,13.38,13.38,0,0,0-1.38-.08H61.05v40Zm2.81-4.24V205.74h.72a1.88,1.88,0,0,1,1.26.42,2.92,2.92,0,0,1,.78,1.49,15.77,15.77,0,0,1,.4,2.91c.07,1.23.11,2.78.11,4.65v12.43c0,1.87,0,3.43-.11,4.65a15.77,15.77,0,0,1-.4,2.91,2.92,2.92,0,0,1-.78,1.49,1.88,1.88,0,0,1-1.26.42Zm13.74,4.43a2.65,2.65,0,0,0,1-.67,6.26,6.26,0,0,0,1-1.4,10.83,10.83,0,0,0,.85-2.39,26.75,26.75,0,0,0,.6-3.64,49.88,49.88,0,0,0,.23-5.12V214.13a51.85,51.85,0,0,0-.23-5.24,26,26,0,0,0-.59-3.63,9.76,9.76,0,0,0-.85-2.32,4.92,4.92,0,0,0-1-1.29,2.51,2.51,0,0,0-1-.56,3.63,3.63,0,0,0-.92-.13,3.77,3.77,0,0,0-1,.14,2.58,2.58,0,0,0-1,.6,4.92,4.92,0,0,0-1,1.32,10.75,10.75,0,0,0-.84,2.33A26,26,0,0,0,72.3,209a50.3,50.3,0,0,0-.23,5.16v14.19c0,2,.08,3.72.22,5.17a27.89,27.89,0,0,0,.58,3.64,11.31,11.31,0,0,0,.84,2.38,5.26,5.26,0,0,0,1,1.4,2.47,2.47,0,0,0,1,.64,3.57,3.57,0,0,0,1,.16,2.89,2.89,0,0,0,.9-.17ZM76,236.83a2.27,2.27,0,0,1-.52-1.06,10.31,10.31,0,0,1-.31-2c-.07-.82-.11-1.85-.11-3.1V212.47c0-1.28,0-2.35.11-3.21a11.42,11.42,0,0,1,.31-2.08,2.49,2.49,0,0,1,.52-1.11,1,1,0,0,1,.74-.33,1,1,0,0,1,.72.33,2.5,2.5,0,0,1,.51,1.11,12.37,12.37,0,0,1,.31,2.08c.06.86.1,1.93.1,3.21v18.22c0,1.25,0,2.28-.1,3.1a11.16,11.16,0,0,1-.31,2,2.27,2.27,0,0,1-.51,1.06,1,1,0,0,1-.72.3,1,1,0,0,1-.74-.3Zm15,4.52h2.82V228l3.76-26.7H94.66l-2.25,19.15h-.13L90,201.31H87.17L90.91,228v13.34Zm11.61,0h2.86l.49-7.17h3.39l.51,7.17h2.85l-3.44-40h-3.24l-3.42,40Zm3.67-11.74,1.32-20h.12l1.3,20Zm7.71,6.75a10.61,10.61,0,0,0,.7,2.72,5,5,0,0,0,1.32,1.92,3.07,3.07,0,0,0,2.1.73,2.87,2.87,0,0,0,1.83-.65,5.12,5.12,0,0,0,1.4-1.84,11.18,11.18,0,0,0,.88-2.9,21.44,21.44,0,0,0,.31-3.85,24,24,0,0,0-.48-4.89,34.28,34.28,0,0,0-1.37-4.81l-3.27-8.54c-.14-.39-.26-.76-.37-1.12s-.2-.73-.28-1.12-.13-.8-.17-1.25-.06-1-.06-1.53a6.81,6.81,0,0,1,.39-2.54,1.29,1.29,0,0,1,1.19-.95c.63,0,1.1.57,1.38,1.7a21.61,21.61,0,0,1,.42,4.89v1.9H122q.12-1.32.21-2.4c.06-.73.09-1.52.09-2.38a23.75,23.75,0,0,0-.2-3,10.91,10.91,0,0,0-.69-2.73,5.31,5.31,0,0,0-1.31-2,2.93,2.93,0,0,0-2-.75,2.71,2.71,0,0,0-1.81.67,5.12,5.12,0,0,0-1.34,1.87,12.05,12.05,0,0,0-.84,2.87,21.73,21.73,0,0,0-.29,3.66,24.82,24.82,0,0,0,.43,4.68,27.64,27.64,0,0,0,1.21,4.35l2.93,7.52c.26.71.48,1.34.64,1.91s.3,1.12.4,1.63a13.9,13.9,0,0,1,.21,1.56c0,.53.06,1.1.06,1.73a6.88,6.88,0,0,1-.43,2.77,1.33,1.33,0,0,1-1.23.95,1.07,1.07,0,0,1-.86-.43,3.38,3.38,0,0,1-.57-1.29,12.86,12.86,0,0,1-.3-2.1c-.06-.83-.09-1.78-.09-2.86v-1.94H114c-.09.84-.16,1.63-.21,2.35s-.07,1.52-.07,2.38a24.53,24.53,0,0,0,.2,3.12Zm15.93,5.18a2.55,2.55,0,0,0,1-.67,5.68,5.68,0,0,0,1-1.4,10.31,10.31,0,0,0,.86-2.39,30.29,30.29,0,0,0,.6-3.64,50.18,50.18,0,0,0,.22-5.12V214.13a52.18,52.18,0,0,0-.22-5.24,26,26,0,0,0-.59-3.63,9.76,9.76,0,0,0-.85-2.32,4.92,4.92,0,0,0-1-1.29,2.48,2.48,0,0,0-1-.56,3.5,3.5,0,0,0-.91-.13,3.77,3.77,0,0,0-1,.14,2.58,2.58,0,0,0-1,.6,4.92,4.92,0,0,0-1,1.32,10.75,10.75,0,0,0-.84,2.33,24.63,24.63,0,0,0-.59,3.62,50.3,50.3,0,0,0-.23,5.16v14.19c0,2,.08,3.72.22,5.17a27.89,27.89,0,0,0,.58,3.64,10.77,10.77,0,0,0,.84,2.38,5.48,5.48,0,0,0,1,1.4,2.56,2.56,0,0,0,1,.64,3.57,3.57,0,0,0,1,.16,3,3,0,0,0,.9-.17Zm-1.64-4.71a2.36,2.36,0,0,1-.53-1.06,12.17,12.17,0,0,1-.31-2c-.06-.82-.1-1.85-.1-3.1V212.47c0-1.28,0-2.35.1-3.21a13.5,13.5,0,0,1,.31-2.08,2.6,2.6,0,0,1,.53-1.11,1,1,0,0,1,.74-.33,1,1,0,0,1,.72.33,2.5,2.5,0,0,1,.51,1.11,12.51,12.51,0,0,1,.3,2.08c.07.86.11,1.93.11,3.21v18.22c0,1.25,0,2.28-.11,3.1a11.28,11.28,0,0,1-.3,2,2.27,2.27,0,0,1-.51,1.06,1,1,0,0,1-.72.3,1,1,0,0,1-.74-.3Zm14.92,2.55a18.56,18.56,0,0,0,1-7.12v-3.71h-2.58v3.92a15.57,15.57,0,0,1-.11,2.07,8.16,8.16,0,0,1-.31,1.46,2.18,2.18,0,0,1-.44.84.7.7,0,0,1-.52.27.93.93,0,0,1-.72-.32,2.44,2.44,0,0,1-.49-1.06,12,12,0,0,1-.26-2c-.06-.82-.08-1.86-.08-3.11V212.33c0-1.28,0-2.35.1-3.21A13.67,13.67,0,0,1,139,207a2.62,2.62,0,0,1,.49-1.11.88.88,0,0,1,.68-.33c.44,0,.77.55,1,1.64a26.26,26.26,0,0,1,.34,4.95v2h2.28q.12-1.32.18-2.4c0-.73.06-1.52.06-2.38a26.49,26.49,0,0,0-.19-3.29,10.92,10.92,0,0,0-.64-2.7,4.66,4.66,0,0,0-1.19-1.83,2.67,2.67,0,0,0-1.86-.67,3.55,3.55,0,0,0-.92.14,2.4,2.4,0,0,0-1,.6,4.7,4.7,0,0,0-1,1.32,10.29,10.29,0,0,0-.83,2.33,26.35,26.35,0,0,0-.57,3.62,50.61,50.61,0,0,0-.22,5.16v14.19c0,2,.07,3.72.21,5.17a26.44,26.44,0,0,0,.57,3.64,10.39,10.39,0,0,0,.81,2.38,5.24,5.24,0,0,0,1,1.4,2.48,2.48,0,0,0,1,.64,3.37,3.37,0,0,0,.94.16c1.28,0,2.26-.79,2.94-2.33Zm3.24,2h2.82v-40h-2.82v40Zm4.61,0h2.86l.49-7.17h3.39l.52,7.17h2.85l-3.44-40h-3.24l-3.43,40Zm3.68-11.74,1.31-20h.12l1.31,20Zm8.22,11.74h2.93a10.8,10.8,0,0,0,1.37-.08,3.25,3.25,0,0,0,1.39-.5,4.43,4.43,0,0,0,1.29-1.3A9,9,0,0,0,170.9,237a25,25,0,0,0,.72-4,54.12,54.12,0,0,0,.27-5.88V215.52a53.79,53.79,0,0,0-.27-5.87,25,25,0,0,0-.72-4,8.71,8.71,0,0,0-1.06-2.46,4.31,4.31,0,0,0-1.29-1.3,3.41,3.41,0,0,0-1.39-.51,13,13,0,0,0-1.37-.08h-2.93v40Zm2.82-4.24V205.74h.72a1.87,1.87,0,0,1,1.25.42,2.92,2.92,0,0,1,.78,1.49,14.22,14.22,0,0,1,.4,2.91c.07,1.23.11,2.78.11,4.65v12.43c0,1.87,0,3.43-.11,4.65a14.22,14.22,0,0,1-.4,2.91,2.92,2.92,0,0,1-.78,1.49,1.87,1.87,0,0,1-1.25.42Zm13.73,4.43a2.58,2.58,0,0,0,1-.67,5.68,5.68,0,0,0,1-1.4,10.34,10.34,0,0,0,.85-2.39,26.75,26.75,0,0,0,.6-3.64,49.88,49.88,0,0,0,.23-5.12V214.13a52.18,52.18,0,0,0-.22-5.24,25.81,25.81,0,0,0-.6-3.63,9.38,9.38,0,0,0-.84-2.32,4.72,4.72,0,0,0-1-1.29,2.44,2.44,0,0,0-1-.56,3.57,3.57,0,0,0-.92-.13,3.69,3.69,0,0,0-.94.14,2.45,2.45,0,0,0-1,.6,4.54,4.54,0,0,0-1,1.32,10.21,10.21,0,0,0-.85,2.33,27.63,27.63,0,0,0-.59,3.62,50.61,50.61,0,0,0-.22,5.16v14.19a51.23,51.23,0,0,0,.22,5.17,26.28,26.28,0,0,0,.58,3.64,10.28,10.28,0,0,0,.84,2.38,5.25,5.25,0,0,0,1,1.4,2.53,2.53,0,0,0,1,.64,3.57,3.57,0,0,0,1,.16,2.89,2.89,0,0,0,.9-.17Zm-1.64-4.71a2.37,2.37,0,0,1-.52-1.06,11.16,11.16,0,0,1-.31-2c-.07-.82-.1-1.85-.1-3.1V212.47c0-1.28,0-2.35.1-3.21a12.37,12.37,0,0,1,.31-2.08,2.61,2.61,0,0,1,.52-1.11,1,1,0,0,1,.74-.33.94.94,0,0,1,.72.33,2.61,2.61,0,0,1,.52,1.11,13.67,13.67,0,0,1,.3,2.08c.07.86.1,1.93.1,3.21v18.22c0,1.25,0,2.28-.1,3.1a12.32,12.32,0,0,1-.3,2,2.37,2.37,0,0,1-.52,1.06,1,1,0,0,1-.72.3,1,1,0,0,1-.74-.3Zm7.47-.47a10.61,10.61,0,0,0,.69,2.72,5.07,5.07,0,0,0,1.33,1.92,3.05,3.05,0,0,0,2.1.73,2.87,2.87,0,0,0,1.83-.65,5.12,5.12,0,0,0,1.4-1.84,11.18,11.18,0,0,0,.88-2.9,21.44,21.44,0,0,0,.31-3.85,24,24,0,0,0-.48-4.89,35.69,35.69,0,0,0-1.37-4.81l-3.27-8.54c-.14-.39-.26-.76-.37-1.12s-.2-.73-.28-1.12-.13-.8-.17-1.25-.06-1-.06-1.53a6.81,6.81,0,0,1,.39-2.54,1.29,1.29,0,0,1,1.19-.95c.63,0,1.09.57,1.38,1.7a21.61,21.61,0,0,1,.42,4.89v1.9h2.18q.12-1.32.21-2.4c.06-.73.09-1.52.09-2.38a23.75,23.75,0,0,0-.2-3,10.91,10.91,0,0,0-.69-2.73,5.31,5.31,0,0,0-1.31-2,2.93,2.93,0,0,0-2.05-.75,2.71,2.71,0,0,0-1.81.67,5.13,5.13,0,0,0-1.35,1.87,12.07,12.07,0,0,0-.83,2.87,21.73,21.73,0,0,0-.29,3.66,24,24,0,0,0,.43,4.68,28.72,28.72,0,0,0,1.2,4.35l2.94,7.52c.26.71.48,1.34.64,1.91s.3,1.12.4,1.63a13.9,13.9,0,0,1,.21,1.56c0,.53.06,1.1.06,1.73a6.88,6.88,0,0,1-.43,2.77,1.33,1.33,0,0,1-1.23.95,1.06,1.06,0,0,1-.86-.43,3.24,3.24,0,0,1-.57-1.29,12.86,12.86,0,0,1-.3-2.1c-.06-.83-.09-1.78-.09-2.86v-1.94h-2.19c-.09.84-.16,1.63-.21,2.35s-.07,1.52-.07,2.38a22.82,22.82,0,0,0,.2,3.12Z" style="fill:#004885"/><path d="M40.93,252.85a15.41,15.41,0,0,0-3.22.35,7.86,7.86,0,0,0-2.56.94v2.26a6.36,6.36,0,0,1,2.32-1.13,10.46,10.46,0,0,1,2.74-.38c2.74,0,4.11,1.18,4.11,3.52v1.86a9.63,9.63,0,0,0-4.93-1.1,6.44,6.44,0,0,0-4.24,1.27,5,5,0,0,0-1.54,4.07,4,4,0,0,0,1.77,3.68,8,8,0,0,0,4.26,1.1,13.75,13.75,0,0,0,5.12-.77,3,3,0,0,0,1.86-3v-7.6a4.61,4.61,0,0,0-1.53-3.74,6.22,6.22,0,0,0-4.16-1.29Zm-.75,14.43a5.91,5.91,0,0,1-3-.74,2.84,2.84,0,0,1-.19-4.58,5.26,5.26,0,0,1,3.05-.75,11.28,11.28,0,0,1,2.35.24,8.22,8.22,0,0,1,2,.64v3.52a1.3,1.3,0,0,1-1,1.34,10.87,10.87,0,0,1-3.17.33Zm17.94-14.4a9.62,9.62,0,0,0-2,.27,15.72,15.72,0,0,0-2.18.64V246.5H51.65v19.64q0,3.15,6.28,3.15a7.69,7.69,0,0,0,5.16-1.87c1.44-1.25,2.17-3.46,2.2-6.65a8.63,8.63,0,0,0-1.81-5.8,6.72,6.72,0,0,0-5.36-2.09Zm-.5,14.33a8.75,8.75,0,0,1-2.61-.34c-.73-.23-1.1-.65-1.1-1.26v-9.55a8.13,8.13,0,0,1,2.06-.82,8.64,8.64,0,0,1,2.15-.28,4.2,4.2,0,0,1,3.61,1.55,7,7,0,0,1,1.17,4.26,8.63,8.63,0,0,1-1.12,4.71c-.74,1.16-2.13,1.73-4.16,1.73ZM76,269.29a6.64,6.64,0,0,0,5.31-2.19A9,9,0,0,0,83.17,261a9.22,9.22,0,0,0-1.79-6,6.69,6.69,0,0,0-5.47-2.18,6.79,6.79,0,0,0-5.33,2.06c-1.22,1.37-1.84,3.41-1.84,6.11a9.21,9.21,0,0,0,1.81,6.13A6.68,6.68,0,0,0,76,269.29Zm0-2.08Q71,267.21,71,261c0-4.06,1.64-6.1,4.93-6.1a4.4,4.4,0,0,1,3.8,1.58A7.45,7.45,0,0,1,80.9,261q0,6.19-5,6.19Zm18.32-14.33a8.05,8.05,0,0,0-5.4,1.86q-2.2,1.84-2.24,6.66a8.63,8.63,0,0,0,1.81,5.8,6.72,6.72,0,0,0,5.36,2.09,9.7,9.7,0,0,0,2-.27,15.72,15.72,0,0,0,2.18-.64v1.16A3.22,3.22,0,0,1,97,272c-.65.63-1.93.94-3.84.94a10.1,10.1,0,0,1-2.06-.19c-.61-.12-1.33-.3-2.15-.53v2.14c.13,0,.41.08.87.2s1,.23,1.6.35a11.35,11.35,0,0,0,2,.17q3.81,0,5.32-1.62a5.58,5.58,0,0,0,1.5-3.94v-12.7a3.15,3.15,0,0,0-1.74-2.94,8.71,8.71,0,0,0-4.26-1ZM89,261.4a8.43,8.43,0,0,1,1.15-4.72Q91.3,255,94.45,255a6.18,6.18,0,0,1,2.59.45,1.7,1.7,0,0,1,1,1.68v9a8.13,8.13,0,0,1-2.06.82,8.64,8.64,0,0,1-2.15.28,4.22,4.22,0,0,1-3.61-1.55A7,7,0,0,1,89,261.4Zm23-8.55a15.5,15.5,0,0,0-3.23.35,8,8,0,0,0-2.56.94v2.26a6.41,6.41,0,0,1,2.33-1.13,10.39,10.39,0,0,1,2.73-.38c2.75,0,4.12,1.18,4.12,3.52v1.86a9.65,9.65,0,0,0-4.93-1.1,6.47,6.47,0,0,0-4.25,1.27,5,5,0,0,0-1.54,4.07,4,4,0,0,0,1.78,3.68,7.94,7.94,0,0,0,4.26,1.1,13.79,13.79,0,0,0,5.12-.77,3,3,0,0,0,1.85-3v-7.6a4.6,4.6,0,0,0-1.52-3.74,6.24,6.24,0,0,0-4.16-1.29Zm-.76,14.43a6,6,0,0,1-3-.74,2.56,2.56,0,0,1-1.25-2.38A2.54,2.54,0,0,1,108,262a5.29,5.29,0,0,1,3.05-.75,11.31,11.31,0,0,1,2.36.24,8.52,8.52,0,0,1,2,.64v3.52a1.3,1.3,0,0,1-1,1.34,10.9,10.9,0,0,1-3.18.33Zm22.06-20.78v7.29a15.32,15.32,0,0,0-2.18-.64,9.62,9.62,0,0,0-2-.27,6.72,6.72,0,0,0-5.36,2.09,8.62,8.62,0,0,0-1.8,5.8c0,3.19.74,5.4,2.17,6.65a7.41,7.41,0,0,0,5,1.87,12.19,12.19,0,0,0,4.42-.79c1.35-.52,2-1.32,2-2.39V246.5Zm0,19.39c0,.38-.39.69-1.19.95a9.64,9.64,0,0,1-2.86.37c-1.87,0-3.15-.58-3.87-1.74a9,9,0,0,1-1.06-4.7,7,7,0,0,1,1.16-4.26,4.2,4.2,0,0,1,3.61-1.55,8.78,8.78,0,0,1,2.16.28,8.06,8.06,0,0,1,2,.82v9.83Zm13.74,3.4a6.64,6.64,0,0,0,5.31-2.19,9,9,0,0,0,1.88-6.08,9.16,9.16,0,0,0-1.79-6,6.66,6.66,0,0,0-5.47-2.18,6.76,6.76,0,0,0-5.32,2.06Q139.8,257,139.8,261a9.21,9.21,0,0,0,1.81,6.13,6.68,6.68,0,0,0,5.42,2.14Zm0-2.08q-4.94,0-4.94-6.19c0-4.06,1.65-6.1,4.94-6.1a4.42,4.42,0,0,1,3.8,1.58A7.52,7.52,0,0,1,152,261q0,6.19-5,6.19Zm15.9,2.08a7.06,7.06,0,0,0,2.72-.54,4.87,4.87,0,0,0,2.12-1.62,4.34,4.34,0,0,0,.82-2.68,3.8,3.8,0,0,0-.71-2.41,4.31,4.31,0,0,0-1.64-1.3,25.32,25.32,0,0,0-2.49-.91,18.25,18.25,0,0,1-2-.65,3.56,3.56,0,0,1-1.23-.81A1.9,1.9,0,0,1,160,257a1.71,1.71,0,0,1,1-1.56,4.81,4.81,0,0,1,2.36-.55,5.51,5.51,0,0,1,2,.32c.56.21,1.36.58,2.41,1.1v-2.26c-1-.44-1.8-.76-2.38-1a6.81,6.81,0,0,0-2.12-.28,7.15,7.15,0,0,0-2.64.49,4.6,4.6,0,0,0-2,1.49,4,4,0,0,0-.79,2.51,3.6,3.6,0,0,0,.74,2.39,4.4,4.4,0,0,0,1.73,1.29,26,26,0,0,0,2.78.91l.82.35a7,7,0,0,1,1.89,1,1.79,1.79,0,0,1,.59,1.46,2.1,2.1,0,0,1-1,1.79,4.38,4.38,0,0,1-2.56.69,7.32,7.32,0,0,1-2.43-.36,16.68,16.68,0,0,1-2.63-1.27V268a13.54,13.54,0,0,0,2.48,1,10.36,10.36,0,0,0,2.74.32Z" style="fill:#27aae2"/></svg>