<svg id="bd640133-d09b-4b43-a879-0e75bb5b3f22" data-name="Capa 1" xmlns="http://www.w3.org/2000/svg" viewBox="0 0 202 281"><title>logo-white</title><path d="M141,169.51H8.14v19.22H160.19V66.39H141Zm0,0" style="fill:#fff;fill-rule:evenodd"/><path d="M57.27,25.78H190.09V6.55H38V128.89H57.27Zm0,0" style="fill:#fff;fill-rule:evenodd"/><path d="M171.13,55.67V188.49h19.22v-152H68V55.67Zm0,0" style="fill:#fff;fill-rule:evenodd"/><path d="M8.18,6.51H27.41V139.34H130.53v19.22H8.18Zm0,0" style="fill:#fff;fill-rule:evenodd"/><path d="M7.88,235.76a11,11,0,0,0,.7,2.71,5,5,0,0,0,1.34,1.92,3.1,3.1,0,0,0,2.1.72,2.91,2.91,0,0,0,1.85-.64,5.16,5.16,0,0,0,1.4-1.83,11.28,11.28,0,0,0,.89-2.9,21.29,21.29,0,0,0,.31-3.83A23.9,23.9,0,0,0,16,227a36.09,36.09,0,0,0-1.38-4.8l-3.29-8.5c-.14-.39-.26-.77-.37-1.13a11.24,11.24,0,0,1-.28-1.11,10.51,10.51,0,0,1-.17-1.25c0-.45-.06-1-.06-1.52a6.79,6.79,0,0,1,.39-2.53,1.29,1.29,0,0,1,1.19-.95c.64,0,1.11.57,1.39,1.7a20.81,20.81,0,0,1,.43,4.87v1.89H16c.08-.87.15-1.67.21-2.39s.09-1.52.09-2.37a23.48,23.48,0,0,0-.2-3,11.27,11.27,0,0,0-.7-2.72,5.2,5.2,0,0,0-1.31-2,3,3,0,0,0-2.07-.74,2.81,2.81,0,0,0-1.82.66A5.34,5.34,0,0,0,8.88,203a12,12,0,0,0-.83,2.86,20.7,20.7,0,0,0-.29,3.65,24.7,24.7,0,0,0,.42,4.66,28.69,28.69,0,0,0,1.22,4.34l2.95,7.5c.26.7.48,1.33.65,1.9a16.59,16.59,0,0,1,.39,1.63,13.42,13.42,0,0,1,.21,1.55c0,.52.06,1.09.06,1.72a7.12,7.12,0,0,1-.42,2.77,1.35,1.35,0,0,1-1.24.94,1.09,1.09,0,0,1-.87-.43,3.25,3.25,0,0,1-.57-1.28,12.86,12.86,0,0,1-.3-2.1c-.07-.82-.1-1.77-.1-2.85v-1.94H8c-.09.84-.16,1.63-.21,2.35s-.07,1.52-.07,2.37a24.37,24.37,0,0,0,.2,3.11Zm9.59,5h2.88l.49-7.15h3.41l.52,7.15h2.86l-3.46-39.91H20.91l-3.44,39.91ZM21.17,229l1.32-19.88h.12L23.92,229Zm8.2-.56q0,2.94.21,5a25.14,25.14,0,0,0,.58,3.47,9.07,9.07,0,0,0,.82,2.22,4.38,4.38,0,0,0,.95,1.25,2.32,2.32,0,0,0,1,.55,3.71,3.71,0,0,0,.89.12,3.85,3.85,0,0,0,.9-.12,2.35,2.35,0,0,0,1-.55,4.58,4.58,0,0,0,1-1.25,9.46,9.46,0,0,0,.83-2.22,25,25,0,0,0,.58-3.48c.14-1.38.21-3.05.21-5V200.83H35.45v29.25c0,1.25,0,2.29-.1,3.11a10.86,10.86,0,0,1-.31,2,2.33,2.33,0,0,1-.51,1.05,1,1,0,0,1-.73.31,1,1,0,0,1-.72-.31,2.44,2.44,0,0,1-.49-1.05,11.25,11.25,0,0,1-.28-2c-.06-.82-.08-1.86-.08-3.11V200.83H29.37v27.64Zm19,10.31a18.31,18.31,0,0,0,1-7.11V228H46.82v3.9A15.4,15.4,0,0,1,46.7,234a8.11,8.11,0,0,1-.3,1.45,2.32,2.32,0,0,1-.45.84.72.72,0,0,1-.52.27,1,1,0,0,1-.73-.32,2.44,2.44,0,0,1-.49-1.06,11.82,11.82,0,0,1-.26-2c-.06-.82-.09-1.86-.09-3.1V211.81c0-1.28,0-2.35.11-3.2a13.32,13.32,0,0,1,.3-2.07,2.62,2.62,0,0,1,.49-1.11.91.91,0,0,1,.69-.33c.44,0,.77.55,1,1.64a26,26,0,0,1,.34,4.93v2h2.3c.08-.87.14-1.67.18-2.39s.06-1.52.06-2.37a26.21,26.21,0,0,0-.19-3.28,11.13,11.13,0,0,0-.65-2.7,4.67,4.67,0,0,0-1.2-1.82,2.71,2.71,0,0,0-1.86-.66,3.18,3.18,0,0,0-.93.14,2.58,2.58,0,0,0-1,.59,5.25,5.25,0,0,0-1,1.32,9.66,9.66,0,0,0-.83,2.33,25.61,25.61,0,0,0-.58,3.6,50.27,50.27,0,0,0-.22,5.15v14.14c0,2,.07,3.71.21,5.15a26.27,26.27,0,0,0,.57,3.63,10.75,10.75,0,0,0,.82,2.37,5.66,5.66,0,0,0,1,1.4,2.62,2.62,0,0,0,1,.64,3.4,3.4,0,0,0,1,.15,3.29,3.29,0,0,0,3-2.31Zm3.26,2h7V236h-4.2V222.3h3.16v-4.77H54.47V205.59h4.09v-4.76H51.64v39.91Zm9.08,0h2.94a13.41,13.41,0,0,0,1.39-.08,3.41,3.41,0,0,0,1.4-.51,4.63,4.63,0,0,0,1.29-1.29,8.66,8.66,0,0,0,1.06-2.44,23.66,23.66,0,0,0,.73-4,53.72,53.72,0,0,0,.27-5.86V215a53.59,53.59,0,0,0-.27-5.86,23.91,23.91,0,0,0-.73-4,8.48,8.48,0,0,0-1.06-2.45,4.55,4.55,0,0,0-1.29-1.3,3.39,3.39,0,0,0-1.4-.5,11.11,11.11,0,0,0-1.39-.08H60.72v39.91Zm2.83-4.23V205.24h.72a1.91,1.91,0,0,1,1.27.42,3,3,0,0,1,.79,1.49,15,15,0,0,1,.39,2.9c.08,1.22.11,2.76.11,4.63v12.39c0,1.87,0,3.41-.11,4.64a15.07,15.07,0,0,1-.39,2.9,3,3,0,0,1-.79,1.48,1.91,1.91,0,0,1-1.27.42Zm13.82,4.42a2.65,2.65,0,0,0,1-.67,5.68,5.68,0,0,0,1-1.4,9.87,9.87,0,0,0,.86-2.39,25.89,25.89,0,0,0,.6-3.62,46.67,46.67,0,0,0,.23-5.1V213.61a51.61,51.61,0,0,0-.22-5.22,25.81,25.81,0,0,0-.6-3.63,9.41,9.41,0,0,0-.85-2.31,4.51,4.51,0,0,0-1-1.28,2.63,2.63,0,0,0-1-.57,4,4,0,0,0-.92-.12,3.36,3.36,0,0,0-.95.14,2.7,2.7,0,0,0-1,.59,5.27,5.27,0,0,0-1,1.32,10,10,0,0,0-.85,2.33,24.09,24.09,0,0,0-.59,3.6,50,50,0,0,0-.23,5.15v14.14A50.81,50.81,0,0,0,72,232.9a27.71,27.71,0,0,0,.58,3.63,10.62,10.62,0,0,0,.85,2.37,5.19,5.19,0,0,0,1,1.4,2.61,2.61,0,0,0,1,.64,3.53,3.53,0,0,0,1,.15,3.3,3.3,0,0,0,.91-.16Zm-1.65-4.7a2.22,2.22,0,0,1-.53-1,11.16,11.16,0,0,1-.31-2c-.07-.81-.1-1.85-.1-3.09V212c0-1.28,0-2.34.1-3.2a12.07,12.07,0,0,1,.31-2.07,2.49,2.49,0,0,1,.53-1.11,1,1,0,0,1,.74-.33,1,1,0,0,1,.73.33,2.61,2.61,0,0,1,.51,1.11,12.07,12.07,0,0,1,.31,2.07c.07.86.1,1.92.1,3.2v18.16c0,1.24,0,2.28-.1,3.09a11.16,11.16,0,0,1-.31,2,2.32,2.32,0,0,1-.51,1,1,1,0,0,1-.73.3,1,1,0,0,1-.74-.3Zm15,4.51h2.83v-13.3l3.78-26.61H94.53l-2.26,19.09h-.14l-2.28-19.09H87l3.77,26.61v13.3Zm11.67,0h2.87l.5-7.15h3.41l.51,7.15h2.87l-3.46-39.91h-3.26l-3.44,39.91ZM106.12,229l1.33-19.88h.12L108.88,229Zm7.75,6.73a11,11,0,0,0,.7,2.71,5.09,5.09,0,0,0,1.34,1.92,3.11,3.11,0,0,0,2.1.72,2.89,2.89,0,0,0,1.85-.64,5.05,5.05,0,0,0,1.4-1.83,10.91,10.91,0,0,0,.89-2.9,21.24,21.24,0,0,0,.32-3.83A23.21,23.21,0,0,0,122,227a37.55,37.55,0,0,0-1.37-4.8l-3.3-8.5c-.13-.39-.26-.77-.37-1.13a11.24,11.24,0,0,1-.28-1.11c-.07-.38-.13-.79-.17-1.25s-.06-1-.06-1.52a6.79,6.79,0,0,1,.39-2.53,1.29,1.29,0,0,1,1.19-.95c.65,0,1.11.57,1.39,1.7a20.81,20.81,0,0,1,.43,4.87v1.89H122c.08-.87.15-1.67.21-2.39s.09-1.52.09-2.37a21.82,21.82,0,0,0-.2-3,11.28,11.28,0,0,0-.69-2.72,5.33,5.33,0,0,0-1.32-2,3,3,0,0,0-2.06-.74,2.78,2.78,0,0,0-1.82.66,5.24,5.24,0,0,0-1.36,1.87,12,12,0,0,0-.83,2.86,20.7,20.7,0,0,0-.29,3.65,24.7,24.7,0,0,0,.42,4.66,28.69,28.69,0,0,0,1.22,4.34l3,7.5c.26.7.48,1.33.65,1.9a16.74,16.74,0,0,1,.4,1.63,13.41,13.41,0,0,1,.2,1.55c0,.52.06,1.09.06,1.72a7.12,7.12,0,0,1-.42,2.77,1.35,1.35,0,0,1-1.24.94,1.09,1.09,0,0,1-.87-.43,3.57,3.57,0,0,1-.57-1.28,12.86,12.86,0,0,1-.3-2.1c-.06-.82-.1-1.77-.1-2.85v-1.94H114c-.1.84-.17,1.63-.22,2.35s-.07,1.52-.07,2.37a24.37,24.37,0,0,0,.2,3.11Zm16,5.17a2.51,2.51,0,0,0,1-.67,5.68,5.68,0,0,0,1-1.4,10.79,10.79,0,0,0,.86-2.39,25.89,25.89,0,0,0,.6-3.62,49.33,49.33,0,0,0,.23-5.1V213.61a51.61,51.61,0,0,0-.22-5.22,25.81,25.81,0,0,0-.6-3.63,9.83,9.83,0,0,0-.85-2.31,4.51,4.51,0,0,0-1-1.28,2.63,2.63,0,0,0-1-.57,4.08,4.08,0,0,0-.92-.12,3.43,3.43,0,0,0-1,.14,2.67,2.67,0,0,0-1,.59,5.05,5.05,0,0,0-1,1.32,10.07,10.07,0,0,0-.84,2.33,25.31,25.31,0,0,0-.6,3.6,50.27,50.27,0,0,0-.22,5.15v14.14a50.81,50.81,0,0,0,.22,5.15,26.11,26.11,0,0,0,.58,3.63,10.66,10.66,0,0,0,.84,2.37,5.68,5.68,0,0,0,1,1.4,2.68,2.68,0,0,0,1,.64,3.6,3.6,0,0,0,1,.15,3.23,3.23,0,0,0,.9-.16Zm-1.65-4.7a2.22,2.22,0,0,1-.52-1,11,11,0,0,1-.32-2c-.06-.81-.1-1.85-.1-3.09V212c0-1.28,0-2.34.1-3.2a11.93,11.93,0,0,1,.32-2.07,2.49,2.49,0,0,1,.52-1.11,1,1,0,0,1,.75-.33,1,1,0,0,1,.72.33,2.61,2.61,0,0,1,.52,1.11,13.32,13.32,0,0,1,.3,2.07c.07.86.11,1.92.11,3.2v18.16c0,1.24,0,2.28-.11,3.09a12.32,12.32,0,0,1-.3,2,2.32,2.32,0,0,1-.52,1,1,1,0,0,1-.72.3,1.05,1.05,0,0,1-.75-.3Zm15,2.55a18.5,18.5,0,0,0,1-7.11V228h-2.6v3.9a15.57,15.57,0,0,1-.11,2.07,8,8,0,0,1-.31,1.45,2.18,2.18,0,0,1-.44.84.72.72,0,0,1-.52.27,1,1,0,0,1-.73-.32,2.44,2.44,0,0,1-.49-1.06,12.78,12.78,0,0,1-.27-2c-.05-.82-.08-1.86-.08-3.1V211.81c0-1.28,0-2.35.11-3.2a11.27,11.27,0,0,1,.3-2.07,2.62,2.62,0,0,1,.49-1.11.88.88,0,0,1,.69-.33c.43,0,.77.55,1,1.64a26,26,0,0,1,.34,4.93v2H144c.08-.87.14-1.67.18-2.39s.06-1.52.06-2.37a26.21,26.21,0,0,0-.19-3.28,11.13,11.13,0,0,0-.65-2.7,4.67,4.67,0,0,0-1.2-1.82,2.72,2.72,0,0,0-1.87-.66,3.17,3.17,0,0,0-.92.14,2.51,2.51,0,0,0-1,.59,5,5,0,0,0-1,1.32,10.07,10.07,0,0,0-.84,2.33,27.16,27.16,0,0,0-.58,3.6c-.14,1.42-.21,3.14-.21,5.15v14.14c0,2,.07,3.71.21,5.15a26.27,26.27,0,0,0,.57,3.63,10.25,10.25,0,0,0,.82,2.37,5.41,5.41,0,0,0,1,1.4,2.62,2.62,0,0,0,1,.64,3.34,3.34,0,0,0,1,.15c1.28,0,2.26-.79,2.95-2.31Zm3.26,2h2.83V200.83h-2.83v39.91Zm4.64,0H154l.5-7.15h3.41l.51,7.15h2.87l-3.46-39.91h-3.26l-3.44,39.91ZM154.84,229l1.33-19.88h.12L157.6,229Zm8.27,11.71h2.94a13.41,13.41,0,0,0,1.39-.08,3.36,3.36,0,0,0,1.4-.51,4.63,4.63,0,0,0,1.29-1.29,8.94,8.94,0,0,0,1.07-2.44,24.84,24.84,0,0,0,.72-4,53.72,53.72,0,0,0,.27-5.86V215a53.59,53.59,0,0,0-.27-5.86,25.12,25.12,0,0,0-.72-4,8.75,8.75,0,0,0-1.07-2.45,4.55,4.55,0,0,0-1.29-1.3,3.34,3.34,0,0,0-1.4-.5,11.11,11.11,0,0,0-1.39-.08h-2.94v39.91Zm2.84-4.23V205.24h.72a1.88,1.88,0,0,1,1.26.42,2.92,2.92,0,0,1,.79,1.49,15.64,15.64,0,0,1,.4,2.9c.07,1.22.11,2.76.11,4.63v12.39c0,1.87,0,3.41-.11,4.64a15.77,15.77,0,0,1-.4,2.9,2.93,2.93,0,0,1-.79,1.48,1.88,1.88,0,0,1-1.26.42Zm13.81,4.42a2.58,2.58,0,0,0,1-.67,6,6,0,0,0,1-1.4,10.79,10.79,0,0,0,.86-2.39,29.23,29.23,0,0,0,.6-3.62,49.33,49.33,0,0,0,.23-5.1V213.61a51.29,51.29,0,0,0-.23-5.22,26,26,0,0,0-.59-3.63,9.38,9.38,0,0,0-.86-2.31,4.51,4.51,0,0,0-1-1.28,2.53,2.53,0,0,0-1-.57,4.09,4.09,0,0,0-.93-.12,3.36,3.36,0,0,0-.95.14,2.6,2.6,0,0,0-1,.59,5.05,5.05,0,0,0-1,1.32,10,10,0,0,0-.85,2.33,27,27,0,0,0-.59,3.6,50,50,0,0,0-.23,5.15v14.14c0,2,.08,3.71.22,5.15a26,26,0,0,0,.59,3.63,10.18,10.18,0,0,0,.84,2.37,5.68,5.68,0,0,0,1,1.4,2.61,2.61,0,0,0,1,.64,3.53,3.53,0,0,0,1,.15,3.23,3.23,0,0,0,.91-.16Zm-1.65-4.7a2.32,2.32,0,0,1-.53-1,12.17,12.17,0,0,1-.31-2c-.07-.81-.1-1.85-.1-3.09V212c0-1.28,0-2.34.1-3.2a13.15,13.15,0,0,1,.31-2.07,2.6,2.6,0,0,1,.53-1.11,1,1,0,0,1,.74-.33,1,1,0,0,1,.73.33,2.5,2.5,0,0,1,.51,1.11,12.07,12.07,0,0,1,.31,2.07c.07.86.1,1.92.1,3.2v18.16c0,1.24,0,2.28-.1,3.09a11.16,11.16,0,0,1-.31,2,2.23,2.23,0,0,1-.51,1,1,1,0,0,1-.73.3,1,1,0,0,1-.74-.3Zm7.51-.47a10.53,10.53,0,0,0,.7,2.71,5,5,0,0,0,1.33,1.92,3.12,3.12,0,0,0,2.11.72,2.93,2.93,0,0,0,1.85-.64,5.28,5.28,0,0,0,1.4-1.83,11.69,11.69,0,0,0,.89-2.9,21.29,21.29,0,0,0,.31-3.83,23.9,23.9,0,0,0-.48-4.88,36.09,36.09,0,0,0-1.38-4.8l-3.29-8.5c-.14-.39-.26-.77-.37-1.13a9,9,0,0,1-.28-1.11,10.42,10.42,0,0,1-.18-1.25c0-.45-.06-1-.06-1.52a6.57,6.57,0,0,1,.4-2.53,1.29,1.29,0,0,1,1.19-.95c.64,0,1.1.57,1.39,1.7a21.47,21.47,0,0,1,.42,4.87v1.89h2.19c.08-.87.15-1.67.21-2.39s.1-1.52.1-2.37a23.48,23.48,0,0,0-.2-3,11.27,11.27,0,0,0-.7-2.72,5.33,5.33,0,0,0-1.32-2,3,3,0,0,0-2.06-.74,2.79,2.79,0,0,0-1.82.66,5.1,5.1,0,0,0-1.35,1.87,12,12,0,0,0-.84,2.86,21.69,21.69,0,0,0-.29,3.65,23.88,23.88,0,0,0,.43,4.66,28.65,28.65,0,0,0,1.21,4.34l3,7.5c.26.7.47,1.33.64,1.9a16.74,16.74,0,0,1,.4,1.63,13.42,13.42,0,0,1,.21,1.55c0,.52.06,1.09.06,1.72a6.91,6.91,0,0,1-.43,2.77,1.33,1.33,0,0,1-1.23.94,1.06,1.06,0,0,1-.87-.43,3.25,3.25,0,0,1-.57-1.28,12.75,12.75,0,0,1-.31-2.1q-.09-1.23-.09-2.85v-1.94h-2.2c-.09.84-.17,1.63-.21,2.35s-.07,1.52-.07,2.37a22.68,22.68,0,0,0,.2,3.11Z" style="fill:#fff"/><path d="M41,252.1a15.23,15.23,0,0,0-3.21.34,7.86,7.86,0,0,0-2.56.94v2.26a6.21,6.21,0,0,1,2.32-1.13,10.39,10.39,0,0,1,2.73-.38q4.09,0,4.1,3.51v1.85a9.69,9.69,0,0,0-4.92-1.1,6.45,6.45,0,0,0-4.23,1.27,5,5,0,0,0-1.53,4.06,4,4,0,0,0,1.77,3.66,7.89,7.89,0,0,0,4.24,1.1,13.73,13.73,0,0,0,5.11-.77,3,3,0,0,0,1.85-3v-7.58a4.63,4.63,0,0,0-1.52-3.73A6.22,6.22,0,0,0,41,252.1Zm-.76,14.37a5.86,5.86,0,0,1-3-.73,2.82,2.82,0,0,1-.19-4.56,5.23,5.23,0,0,1,3-.75,12.08,12.08,0,0,1,2.35.23,8.28,8.28,0,0,1,2,.65v3.5a1.3,1.3,0,0,1-1,1.34,11.27,11.27,0,0,1-3.17.32Zm17.89-14.34a10.13,10.13,0,0,0-2,.26A14.43,14.43,0,0,0,54,253v-7.27H51.71v19.58c0,2.08,2.09,3.13,6.26,3.13a7.57,7.57,0,0,0,5.14-1.87q2.16-1.86,2.19-6.62a8.57,8.57,0,0,0-1.8-5.78,6.67,6.67,0,0,0-5.34-2.08Zm-.5,14.28a8.72,8.72,0,0,1-2.6-.34c-.73-.23-1.1-.65-1.1-1.26v-9.52a8.12,8.12,0,0,1,2.06-.81,8.59,8.59,0,0,1,2.14-.29,4.18,4.18,0,0,1,3.6,1.56A6.87,6.87,0,0,1,62.92,260a8.62,8.62,0,0,1-1.11,4.7c-.74,1.15-2.12,1.72-4.15,1.72ZM76,268.48a6.64,6.64,0,0,0,5.3-2.18,9,9,0,0,0,1.88-6.06,9.14,9.14,0,0,0-1.79-6,6.64,6.64,0,0,0-5.45-2.17,6.74,6.74,0,0,0-5.31,2.05q-1.83,2.06-1.83,6.09a9.22,9.22,0,0,0,1.8,6.11,6.67,6.67,0,0,0,5.4,2.13Zm0-2.07q-4.92,0-4.92-6.17t4.92-6.08a4.41,4.41,0,0,1,3.79,1.57,7.51,7.51,0,0,1,1.16,4.51q0,6.17-5,6.17Zm18.26-14.28A8,8,0,0,0,88.8,254q-2.2,1.85-2.23,6.64a8.57,8.57,0,0,0,1.8,5.78,6.7,6.7,0,0,0,5.34,2.08,9.46,9.46,0,0,0,2-.27,15.32,15.32,0,0,0,2.18-.64v1.16a3.2,3.2,0,0,1-1,2.41c-.65.63-1.92.94-3.82.94a9.93,9.93,0,0,1-2.05-.19c-.62-.12-1.33-.3-2.15-.53v2.13c.13,0,.41.09.86.2s1,.23,1.6.35a11.35,11.35,0,0,0,2,.17q3.8,0,5.29-1.61a5.54,5.54,0,0,0,1.51-3.93V256a3.14,3.14,0,0,0-1.74-2.93,8.81,8.81,0,0,0-4.25-1ZM89,260.62a8.34,8.34,0,0,1,1.15-4.7c.76-1.15,2.18-1.73,4.27-1.73a6.16,6.16,0,0,1,2.59.46,1.69,1.69,0,0,1,1,1.67v9a8.06,8.06,0,0,1-2,.82,8.64,8.64,0,0,1-2.15.28,4.22,4.22,0,0,1-3.6-1.55A7,7,0,0,1,89,260.62Zm22.9-8.52a15.37,15.37,0,0,0-3.21.34,7.71,7.71,0,0,0-2.55.94v2.26a6.14,6.14,0,0,1,2.32-1.13,10.26,10.26,0,0,1,2.72-.38c2.74,0,4.1,1.17,4.1,3.51v1.85a9.68,9.68,0,0,0-4.91-1.1,6.41,6.41,0,0,0-4.23,1.27,5,5,0,0,0-1.54,4.06,4,4,0,0,0,1.77,3.66,7.93,7.93,0,0,0,4.25,1.1,13.67,13.67,0,0,0,5.1-.77,3,3,0,0,0,1.85-3v-7.58a4.63,4.63,0,0,0-1.52-3.73,6.19,6.19,0,0,0-4.15-1.28Zm-.75,14.37a5.93,5.93,0,0,1-3-.73,2.55,2.55,0,0,1-1.25-2.37,2.51,2.51,0,0,1,1.06-2.19,5.25,5.25,0,0,1,3-.75,11.93,11.93,0,0,1,2.35.23,8.28,8.28,0,0,1,2,.65v3.5a1.3,1.3,0,0,1-1,1.34,11.19,11.19,0,0,1-3.16.32Zm22-20.7V253a14.09,14.09,0,0,0-2.18-.65,10.13,10.13,0,0,0-2-.26,6.67,6.67,0,0,0-5.34,2.08,8.57,8.57,0,0,0-1.8,5.78q0,4.75,2.16,6.62a7.33,7.33,0,0,0,5,1.87,12.08,12.08,0,0,0,4.4-.78c1.35-.53,2-1.32,2-2.39V245.77Zm0,19.33c0,.37-.4.68-1.19.94a9.62,9.62,0,0,1-2.85.37c-1.86,0-3.15-.58-3.85-1.74a8.81,8.81,0,0,1-1.07-4.68,6.93,6.93,0,0,1,1.16-4.24,4.18,4.18,0,0,1,3.6-1.56,8.67,8.67,0,0,1,2.15.29,8.19,8.19,0,0,1,2.05.81v9.81Zm13.69,3.38a6.62,6.62,0,0,0,5.29-2.18,9,9,0,0,0,1.88-6.06,9.14,9.14,0,0,0-1.78-6q-1.78-2.18-5.46-2.17a6.73,6.73,0,0,0-5.3,2.05q-1.84,2.06-1.84,6.09a9.22,9.22,0,0,0,1.8,6.11,6.7,6.7,0,0,0,5.41,2.13Zm0-2.07q-4.92,0-4.92-6.17t4.92-6.08a4.43,4.43,0,0,1,3.79,1.57,7.51,7.51,0,0,1,1.16,4.51q0,6.17-4.95,6.17Zm15.85,2.07a7.19,7.19,0,0,0,2.71-.53,5,5,0,0,0,2.11-1.62,4.33,4.33,0,0,0,.81-2.68,3.74,3.74,0,0,0-.7-2.39,4.18,4.18,0,0,0-1.63-1.3,26.33,26.33,0,0,0-2.49-.91,19,19,0,0,1-2-.64,3.32,3.32,0,0,1-1.22-.82,1.86,1.86,0,0,1-.49-1.33,1.71,1.71,0,0,1,1-1.55,4.74,4.74,0,0,1,2.34-.55,5.48,5.48,0,0,1,2,.32c.56.21,1.35.57,2.4,1.09v-2.25c-1-.44-1.79-.75-2.37-.94a6.78,6.78,0,0,0-2.11-.28,7.26,7.26,0,0,0-2.63.48,4.68,4.68,0,0,0-2,1.49,4,4,0,0,0-.78,2.51,3.55,3.55,0,0,0,.74,2.38,4.44,4.44,0,0,0,1.72,1.28,28.14,28.14,0,0,0,2.77.91l.81.34a7.35,7.35,0,0,1,1.88,1,1.76,1.76,0,0,1,.6,1.46,2.08,2.08,0,0,1-1,1.78,4.36,4.36,0,0,1-2.55.69,7.32,7.32,0,0,1-2.43-.36,16.62,16.62,0,0,1-2.61-1.27v2.38a13.29,13.29,0,0,0,2.47,1,10.69,10.69,0,0,0,2.73.31Z" style="fill:#fff"/></svg>