<?xml version="1.0" encoding="utf-8"?>
<!-- Generator: Adobe Illustrator 23.0.0, SVG Export Plug-In . SVG Version: 6.00 Build 0)  -->
<svg version="1.1" id="Capa_1" xmlns="http://www.w3.org/2000/svg" xmlns:xlink="http://www.w3.org/1999/xlink" x="0px" y="0px"
	 viewBox="0 0 512 512" style="enable-background:new 0 0 512 512;" xml:space="preserve">
<style type="text/css">
	.st0{fill:#0691CA;}
</style>
<g>
	<g>
		<path class="st0" d="M259,222.5c32.3,0,58.6-26.3,58.6-58.6s-26.3-58.6-58.6-58.6s-58.6,26.3-58.6,58.6S226.7,222.5,259,222.5z
			 M259,122.1c23.1,0,41.9,18.8,41.9,41.9S282,205.8,259,205.8c-23.1,0-41.9-18.8-41.9-41.9S235.9,122.1,259,122.1z"/>
		<path class="st0" d="M420.3,314.6h-59.9l25.5-36.8C434.1,213.6,427.1,108,371,51.9c-30.3-30.3-70.6-47-113.5-47
			c-42.9,0-83.2,16.7-113.5,47C87.9,108,80.9,213.6,128.9,277.5l25.7,37.1H91.7L0,507.1h512L420.3,314.6z M142.5,267.7
			c-43.5-58-37.3-153.3,13.4-204c27.2-27.2,63.3-42.1,101.7-42.1s74.5,15,101.7,42.1c50.6,50.6,56.9,146,13.2,204.2L257.5,433.8
			l-82.6-119.2l0,0L142.5,267.7z M102.3,331.3h63.9l91.3,131.9l91.3-131.9h60.9l75.7,159h-459L102.3,331.3z"/>
	</g>
</g>
</svg>
